<?xml version="1.0" encoding="UTF-8" standalone="no"?>
<!-- Created with Inkscape (http://www.inkscape.org/) -->

<svg
   xmlns:dc="http://purl.org/dc/elements/1.1/"
   xmlns:cc="http://creativecommons.org/ns#"
   xmlns:rdf="http://www.w3.org/1999/02/22-rdf-syntax-ns#"
   xmlns:svg="http://www.w3.org/2000/svg"
   xmlns="http://www.w3.org/2000/svg"
   xmlns:sodipodi="http://sodipodi.sourceforge.net/DTD/sodipodi-0.dtd"
   xmlns:inkscape="http://www.inkscape.org/namespaces/inkscape"
   width="32"
   height="32"
   id="svg2"
   version="1.1"
   inkscape:version="0.48.2 r9819"
   sodipodi:docname="chain_b.svg"
   inkscape:export-filename="/Users/vnavarro/Workspace/GameDevelopment/Portcullis/assets/chain_d.png"
   inkscape:export-xdpi="90"
   inkscape:export-ydpi="90">
  <defs
     id="defs4" />
  <sodipodi:namedview
     id="base"
     pagecolor="#ffffff"
     bordercolor="#666666"
     borderopacity="1.0"
     inkscape:pageopacity="0.0"
     inkscape:pageshadow="2"
     inkscape:zoom="11.971985"
     inkscape:cx="16"
     inkscape:cy="16.90375"
     inkscape:document-units="px"
     inkscape:current-layer="layer1"
     showgrid="false"
     inkscape:window-width="930"
     inkscape:window-height="651"
     inkscape:window-x="176"
     inkscape:window-y="93"
     inkscape:window-maximized="0" />
  <metadata
     id="metadata7">
    <rdf:RDF>
      <cc:Work
         rdf:about="">
        <dc:format>image/svg+xml</dc:format>
        <dc:type
           rdf:resource="http://purl.org/dc/dcmitype/StillImage" />
        <dc:title></dc:title>
      </cc:Work>
    </rdf:RDF>
  </metadata>
  <g
     inkscape:label="Layer 1"
     inkscape:groupmode="layer"
     id="layer1"
     transform="translate(0,-1020.3622)">
    <path
       style="fill:#374548;fill-opacity:1;stroke:none"
       d="m 23.265944,1032.3719 c 0.362976,-0.3246 0.719328,-0.6875 1.042668,-1.0856 2.409925,-2.9674 2.610816,-6.7766 0.448361,-8.5328 -2.162456,-1.7562 -5.873714,-0.7979 -8.283639,2.1695 -0.32334,0.3981 -0.581104,0.841 -0.824348,1.2628 l 1.067345,0.8669 c 0.217274,-0.4346 0.47112,-0.8775 0.80009,-1.2826 1.776726,-2.1877 4.503688,-2.9044 6.097907,-1.6096 1.594218,1.2947 1.452181,4.1107 -0.324545,6.2984 -0.328969,0.405 -0.684818,0.7651 -1.066926,1.0658 l 1.043087,0.8472 z"
       id="path3009"
       inkscape:connector-curvature="0" />
    <path
       style="fill:#374548;fill-opacity:1;stroke:none"
       d="m 7.3858901,1041.2193 c -1.3755073,3.2171 -0.726652,6.6157 1.5923654,7.8169 2.4736245,1.2814 5.8857065,-0.4284 7.6439495,-3.8228 0.3294,-0.6366 0.582487,-1.2787 0.750314,-1.9235 l -1.256911,-0.5575 c -0.113859,0.6203 -0.307856,1.2599 -0.626833,1.8757 -1.296266,2.5025 -3.866555,3.7538 -5.6901711,2.8092 -1.8236164,-0.9446 -2.2274571,-3.7221 -0.931191,-6.2246 0.2490486,-0.4801 0.5526224,-0.9031 0.8778954,-1.2858 l -1.3140434,-0.5828 c -0.2807531,0.3829 -0.5245149,0.7946 -0.7542317,1.238 -0.1094902,0.2124 -0.1968525,0.4438 -0.2914173,0.6571 z"
       id="path3018"
       inkscape:connector-curvature="0" />
    <rect
       style="fill:#374548;fill-opacity:1;stroke:none"
       id="rect2986"
       width="0.91881174"
       height="0.83528334"
       x="813.22534"
       y="632.72925"
       transform="matrix(0.6252066,0.78045929,-0.78045929,0.6252066,0,0)" />
    <rect
       y="1034.0695"
       x="12.195137"
       height="0.83528334"
       width="0.91881174"
       id="rect2988"
       style="fill:#374548;fill-opacity:1;stroke:none" />
    <rect
       style="fill:#374548;fill-opacity:1;stroke:none"
       id="rect2990"
       width="0.91881174"
       height="0.83528334"
       x="10.942212"
       y="1031.4801" />
    <rect
       y="1036.3247"
       x="9.9398718"
       height="0.83528334"
       width="0.91881174"
       id="rect2992"
       style="fill:#374548;fill-opacity:1;stroke:none" />
    <rect
       style="fill:#374548;fill-opacity:1;stroke:none"
       id="rect2994"
       width="0.91881174"
       height="0.83528334"
       x="-908.83258"
       y="506.8013"
       transform="matrix(0.47312661,-0.88099444,0.88099444,0.47312661,0,0)" />
    <rect
       y="243.96695"
       x="-1011.4153"
       height="0.83528334"
       width="0.91881174"
       id="rect2996"
       style="fill:#374548;fill-opacity:1;stroke:none"
       transform="matrix(0.22328114,-0.97475409,0.97475409,0.22328114,0,0)" />
    <rect
       style="fill:#374548;fill-opacity:1;stroke:none"
       id="rect2998"
       width="0.91881174"
       height="0.83528334"
       x="-824.05664"
       y="629.18793"
       transform="matrix(0.59570764,-0.80320135,0.80320135,0.59570764,0,0)" />
    <rect
       y="1033.2341"
       x="16.53861"
       height="0.83528334"
       width="0.91881174"
       id="rect3000"
       style="fill:#374548;fill-opacity:1;stroke:none" />
    <rect
       style="fill:#374548;fill-opacity:1;stroke:none"
       id="rect3002"
       width="0.91881174"
       height="0.83528334"
       x="826.23749"
       y="626.31073"
       transform="matrix(0.61824477,0.78598563,-0.78598563,0.61824477,0,0)" />
    <rect
       y="-220.04787"
       x="-1008.4647"
       height="0.83528334"
       width="0.91881174"
       id="rect3004"
       style="fill:#374548;fill-opacity:1;stroke:none"
       transform="matrix(-0.2308524,-0.97298878,0.97298878,-0.2308524,0,0)" />
    <rect
       style="fill:#374548;fill-opacity:1;stroke:none"
       id="rect3006"
       width="0.91881174"
       height="0.83528334"
       x="20.54797"
       y="1034.0695" />
    <rect
       y="1037.327"
       x="20.715027"
       height="0.83528334"
       width="0.91881174"
       id="rect3008"
       style="fill:#374548;fill-opacity:1;stroke:none" />
  </g>
</svg>
