<?xml version="1.0" encoding="UTF-8" standalone="no"?>
<!-- Created with Inkscape (http://www.inkscape.org/) -->

<svg
   xmlns:dc="http://purl.org/dc/elements/1.1/"
   xmlns:cc="http://creativecommons.org/ns#"
   xmlns:rdf="http://www.w3.org/1999/02/22-rdf-syntax-ns#"
   xmlns:svg="http://www.w3.org/2000/svg"
   xmlns="http://www.w3.org/2000/svg"
   xmlns:sodipodi="http://sodipodi.sourceforge.net/DTD/sodipodi-0.dtd"
   xmlns:inkscape="http://www.inkscape.org/namespaces/inkscape"
   width="32"
   height="32"
   id="svg2"
   version="1.1"
   inkscape:version="0.48.2 r9819"
   sodipodi:docname="chain_b.svg"
   inkscape:export-filename="/Users/vnavarro/Workspace/GameDevelopment/Portcullis/assets/chain_b.png"
   inkscape:export-xdpi="90"
   inkscape:export-ydpi="90">
  <defs
     id="defs4" />
  <sodipodi:namedview
     id="base"
     pagecolor="#ffffff"
     bordercolor="#666666"
     borderopacity="1.0"
     inkscape:pageopacity="0.0"
     inkscape:pageshadow="2"
     inkscape:zoom="6.765625"
     inkscape:cx="16"
     inkscape:cy="16.253456"
     inkscape:document-units="px"
     inkscape:current-layer="layer1"
     showgrid="false"
     inkscape:window-width="930"
     inkscape:window-height="651"
     inkscape:window-x="176"
     inkscape:window-y="93"
     inkscape:window-maximized="0" />
  <metadata
     id="metadata7">
    <rdf:RDF>
      <cc:Work
         rdf:about="">
        <dc:format>image/svg+xml</dc:format>
        <dc:type
           rdf:resource="http://purl.org/dc/dcmitype/StillImage" />
        <dc:title></dc:title>
      </cc:Work>
    </rdf:RDF>
  </metadata>
  <g
     inkscape:label="Layer 1"
     inkscape:groupmode="layer"
     id="layer1"
     transform="translate(0,-1020.3622)">
    <path
       style="fill:#374548;fill-opacity:1;stroke:none"
       d="m 14.816815,1014.8791 c -2.78577,0 -5.0442257,3.0896 -5.0442257,6.9125 0,3.8227 2.2584557,6.9126 5.0442257,6.9126 2.785771,0 5.044225,-3.0899 5.044225,-6.9126 0,-3.8229 -2.258454,-6.9125 -5.044225,-6.9125 z m 0,1.806 c 2.053743,0 3.705327,2.2881 3.705327,5.1065 0,2.8183 -1.651584,5.1065 -3.705327,5.1065 -2.053742,0 -3.736462,-2.2882 -3.736462,-5.1065 0,-2.8184 1.68272,-5.1065 3.736462,-5.1065 z"
       id="path3009"
       inkscape:connector-curvature="0" />
    <path
       inkscape:connector-curvature="0"
       id="path3014"
       d="m 15.994995,1024.4519 c -2.78577,0 -5.044226,3.0897 -5.044226,6.9126 0,3.8227 2.258456,6.9125 5.044226,6.9125 2.785771,0 5.044225,-3.0898 5.044225,-6.9125 0,-3.8229 -2.258454,-6.9126 -5.044225,-6.9126 z m 0,1.806 c 2.053743,0 3.705327,2.2882 3.705327,5.1066 0,2.8182 -1.651584,5.1065 -3.705327,5.1065 -2.053743,0 -3.736462,-2.2883 -3.736462,-5.1065 0,-2.8184 1.682719,-5.1066 3.736462,-5.1066 z"
       style="fill:#374548;fill-opacity:1;stroke:none" />
    <path
       inkscape:connector-curvature="0"
       id="path3016"
       d="m 14.919266,1034.4471 c -2.785771,0 -5.0442251,3.0898 -5.0442251,6.9125 0,3.8229 2.2584541,6.9126 5.0442251,6.9126 2.78577,0 5.044226,-3.0897 5.044226,-6.9126 0,-3.8227 -2.258456,-6.9125 -5.044226,-6.9125 z m 0,1.806 c 2.053743,0 3.705326,2.2883 3.705326,5.1065 0,2.8184 -1.651583,5.1066 -3.705326,5.1066 -2.053743,0 -3.736463,-2.2882 -3.736463,-5.1066 0,-2.8182 1.68272,-5.1065 3.736463,-5.1065 z"
       style="fill:#374548;fill-opacity:1;stroke:none"
       inkscape:transform-center-x="-1.1845821"
       inkscape:transform-center-y="5.5600203" />
    <path
       style="fill:#374548;fill-opacity:1;stroke:none"
       d="m 16.097446,1044.0199 c -2.785771,0 -5.044225,3.0899 -5.044225,6.9126 0,3.8229 2.258454,6.9125 5.044225,6.9125 2.78577,0 5.044226,-3.0896 5.044226,-6.9125 0,-3.8227 -2.258456,-6.9126 -5.044226,-6.9126 z m 0,1.8061 c 2.053742,0 3.705326,2.2882 3.705326,5.1065 0,2.8184 -1.651584,5.1065 -3.705326,5.1065 -2.053743,0 -3.736463,-2.2881 -3.736463,-5.1065 0,-2.8183 1.68272,-5.1065 3.736463,-5.1065 z"
       id="path3018"
       inkscape:connector-curvature="0"
       inkscape:transform-center-x="-2.3627621"
       inkscape:transform-center-y="15.13282" />
  </g>
</svg>
